<?xml version="1.0" standalone="no"?><!DOCTYPE svg PUBLIC "-//W3C//DTD SVG 1.1//EN" "http://www.w3.org/Graphics/SVG/1.1/DTD/svg11.dtd"><svg t="1487315400206" class="icon" style="" viewBox="0 0 1024 1024" version="1.1" xmlns="http://www.w3.org/2000/svg" p-id="10568" xmlns:xlink="http://www.w3.org/1999/xlink" width="32" height="32"><defs><style type="text/css"></style></defs><path d="M456.384 619.072l-57.696 0c0 0-50.784 5.984-68.576 63.584-6.176 38.432 5.472 66.56 7.52 71.424 2.08 4.8 18.496 20.704 59.68 46.688l85.024 0 0-239.744-25.952-0.64 0 58.688zM456.384 748.864l-46.048 0c0 0-26.752 1.056-34.944-29.76-4.16-13.728 0.608-22.688 2.784-28.864 1.984-6.144 10.944-19.264 29.408-19.264l48.8 0 0 77.888z" p-id="10569" fill="#9d9d9d"></path><path d="M612.128 748.864l-34.368 0c0 0-17.536-0.544-17.536-12.16l0-109.088-51.904 0.704 0 121.408c0 0 9.76 25.12 52.32 51.072l103.456 0 0-181.696-51.904 0 0 129.792z" p-id="10570" fill="#9d9d9d"></path><path d="M1001.504 172.192c0-82.944-67.232-150.176-150.176-150.176l-686.08 0c-82.944 0-150.176 67.232-150.176 150.176l0 686.08c0 82.944 67.232 150.176 150.176 150.176l686.08 0c82.944 0 150.176-67.232 150.176-150.176l0-686.08zM549.888 288.16c4.384-40.16 52.384-101.696 90.816-92.864 38.368 8.736 73.312 59.584 66.24 103.328-6.944 43.808-41.728 101.632-95.904 94.624-54.112-6.976-66.368-55.968-61.12-105.056zM436.448 177.728c40.544 0 73.28 46.656 73.28 104.256 0 57.696-32.768 104.352-73.28 104.352-40.48 0-73.312-46.656-73.312-104.352 0-57.6 32.864-104.256 73.312-104.256zM207.84 424.768c0 0 8.672-85.824 68.064-91.136 47.168-4.064 81.952 47.584 85.568 77.152 2.208 19.168 12.16 106.88-61.184 122.656-73.216 15.744-100.48-69.024-92.448-108.672zM766.432 794.464c-40.16 94.592-186.88 45.44-186.88 45.44s-54.112-17.408-116.896-3.488c-62.784 14.048-116.928 8.736-116.928 8.736s-73.44 1.76-94.368-91.072c-20.928-92.864 73.28-143.744 80.352-152.416 6.944-8.8 55.84-42.016 87.2-94.592 31.552-52.544 125.728-94.624 192.064 8.736 48.928 70.048 132.736 134.912 132.736 134.912s62.816 49.088 22.72 143.712zM754.176 578.88c-80.352 1.792-83.776-54.336-83.776-94.528 0-42.112 8.64-101.664 73.344-101.664 64.576 0 82.016 63.136 82.016 84.064 0 21.088 8.768 110.368-71.552 112.128z" p-id="10571" fill="#9d9d9d"></path></svg>