<?xml version="1.0" standalone="no"?><!DOCTYPE svg PUBLIC "-//W3C//DTD SVG 1.1//EN" "http://www.w3.org/Graphics/SVG/1.1/DTD/svg11.dtd"><svg t="1487314969708" class="icon" style="" viewBox="0 0 1024 1024" version="1.1" xmlns="http://www.w3.org/2000/svg" p-id="3667" xmlns:xlink="http://www.w3.org/1999/xlink" width="32" height="32"><defs><style type="text/css"></style></defs><path d="M870.4 51.2H153.6c-56.32 0-102.4 46.08-102.4 102.4v716.8c0 56.371 46.08 102.4 102.4 102.4H512V614.4H409.6V487.68H512V382.72c0-110.797 62.054-188.62 192.82-188.62l92.313 0.102v133.376h-61.287c-50.892 0-70.246 38.195-70.246 73.625v86.528h131.482L768 614.4H665.6v358.4h204.8c56.32 0 102.4-46.029 102.4-102.4V153.6c0-56.32-46.08-102.4-102.4-102.4z" fill="#9d9d9d" p-id="3668" class=""></path></svg>