<?xml version="1.0" encoding="utf-8"?>
<!-- Generator: Adobe Illustrator 15.0.0, SVG Export Plug-In . SVG Version: 6.00 Build 0)  -->
<!DOCTYPE svg PUBLIC "-//W3C//DTD SVG 1.1//EN" "http://www.w3.org/Graphics/SVG/1.1/DTD/svg11.dtd">
<svg version="1.1" id="Layer_1" xmlns="http://www.w3.org/2000/svg" xmlns:xlink="http://www.w3.org/1999/xlink" x="0px" y="0px"
	 width="64px" height="64px" viewBox="0 0 64 64" enable-background="new 0 0 64 64" xml:space="preserve">
<g>
	<path d="M29.951,15.605c-11.174,0-21.687,5.966-27.435,15.567l-0.429,0.712l19.074,11.394l8.169,5.117h32.583v-0.828
		C61.913,29.943,47.575,15.605,29.951,15.605z M60.245,46.738H40.631c0.013-0.075,0.024-0.151,0.036-0.228l19.325-2.883
		C60.132,44.687,60.216,45.729,60.245,46.738z M21.623,40.195c-0.196,0.379-0.362,0.752-0.502,1.131L4.371,31.32
		c0.805-1.26,1.734-2.491,2.766-3.665L21.623,40.195z M30.65,36.332c4.691,0,8.508,3.816,8.508,8.509
		c0,0.609-0.076,1.231-0.232,1.897h-9.119l-7.231-4.526C23.714,38.685,26.926,36.332,30.65,36.332z M8.26,26.438
		c1.188-1.214,2.489-2.336,3.875-3.342L23.45,37.677c-0.341,0.344-0.656,0.71-0.942,1.094L8.26,26.438z M24.709,36.6L13.503,22.157
		c1.252-0.808,2.579-1.531,3.954-2.156l8.765,15.695C25.695,35.95,25.187,36.253,24.709,36.6z M27.782,35.089L18.986,19.34
		c1.618-0.632,3.299-1.127,5.006-1.474l4.955,16.96C28.545,34.892,28.156,34.98,27.782,35.089z M31.327,34.699
		c-0.223-0.017-0.449-0.024-0.677-0.024c-0.008,0-0.016,0-0.024,0l-4.991-17.084c1.976-0.291,3.867-0.383,5.692-0.295V34.699z
		 M38.474,38.37c-0.144-0.176-0.282-0.333-0.42-0.481l7.859-16.07c1.558,0.971,3.043,2.097,4.424,3.356L38.474,38.37z
		 M39.867,40.571c-0.124-0.266-0.265-0.53-0.424-0.802l12.09-13.454c1.018,1.035,1.978,2.167,2.863,3.371L39.867,40.571z
		 M40.459,42.198L55.34,31.05c0.949,1.454,1.776,2.997,2.464,4.596l-17.229,7.042C40.539,42.518,40.501,42.355,40.459,42.198z
		 M40.796,44.386l17.626-7.204c0.566,1.546,1.007,3.162,1.315,4.811l-18.924,2.824C40.813,44.67,40.806,44.529,40.796,44.386z
		 M36.006,36.213l3.8-17.297c1.604,0.554,3.173,1.248,4.671,2.07l-7.702,15.75C36.53,36.551,36.273,36.378,36.006,36.213z
		 M32.982,34.948V17.42c1.776,0.177,3.533,0.512,5.237,0.994l-3.737,17.021C33.983,35.229,33.48,35.067,32.982,34.948z" fill="#fff"/>
</g>
</svg>
