<?xml version="1.0" standalone="no"?><!DOCTYPE svg PUBLIC "-//W3C//DTD SVG 1.1//EN" "http://www.w3.org/Graphics/SVG/1.1/DTD/svg11.dtd"><svg t="1487315268716" class="icon" style="" viewBox="0 0 1024 1024" version="1.1" xmlns="http://www.w3.org/2000/svg" p-id="7591" xmlns:xlink="http://www.w3.org/1999/xlink" width="42" height="42"><defs><style type="text/css"></style></defs><path d="M325 740q-4 4.5-10-1.5-6.5-5.5-2-9.5 4-4.5 10 1.5 6 5.5 2 9.5zm-21-30.5q4.5 6 0 9.5-4 3-8.5-3.5t0-9q4.5-3.5 8.5 3zm-30.5-30q-2.5 3.5-6.5 1-5-2.5-3.5-6 1.5-2.5 6.5-1 5 2.5 3.5 6zm15.5 17q-3 3.5-8-1.5-4.5-5.5-1-8 3-3 8 1.5 4.5 5.5 1 8zm64.5 56q-2 6-9.5 3-8.5-2-6.5-7.5t9.5-3.5q8 2.5 6.5 8zm31.5 2.5q0 5.5-8 5.5-8.5 1-8.5-5.5 0-5.5 8-5.5 8.5-1 8.5 5.5zm29-5q1 5-7 7t-9-4 7-7.5q8-1 9 4.5zm482-478l0 480q0 59.5-42.25 101.75t-101.75 42.25l-112 0q-8 0-12.25-0.5t-9.75-2.5-8-7.25-2.5-13.75l0-119.5q0-48.5-26-71 28.5-3 51.25-9t47-19.5 40.5-33.25 26.5-52.5 10.25-75.25q0-60.5-39.5-103 18.5-45.5-4-102-14-4.5-40.5 5.5t-46 22l-19 12q-46.5-13-96-13t-96 13q-8-5.5-21.25-13.5t-41.75-19.25-43-6.75q-22 56.5-3.5 102-39.5 42.5-39.5 103 0 42.5 10.25 75t26.25 52.5 40.25 33.5 47 19.5 51.25 9q-20 18-24.5 51.5-10.5 5-22.5 7.5t-28.5 2.5-32.75-10.75-27.75-31.25q-9.5-16-24.25-26t-24.75-12l-10-1.5q-10.5 0-14.5 2.25t-2.5 5.75 4.5 7 6.5 6l3.5 2.5q11 5 21.75 19t15.75 25.5l5 11.5q6.5 19 22 30.75t33.5 15 34.75 3.5 27.75-1.75l11.5-2q0 19 2.5 51.5t2.5 34q0 11-5.5 16.75t-11 6.5-16.5 0.75l-112 0q-59.5 0-101.75-42.25t-42.25-101.75l0-480q0-59.5 42.25-101.75t101.75-42.25l480 0q59.5 0 101.75 42.25t42.25 101.75z" p-id="7592" fill="#9d9d9d"></path></svg>