<?xml version="1.0" standalone="no"?><!DOCTYPE svg PUBLIC "-//W3C//DTD SVG 1.1//EN" "http://www.w3.org/Graphics/SVG/1.1/DTD/svg11.dtd"><svg t="1487315205190" class="icon" style="" viewBox="0 0 1024 1024" version="1.1" xmlns="http://www.w3.org/2000/svg" p-id="5321" xmlns:xlink="http://www.w3.org/1999/xlink" width="42" height="42"><defs><style type="text/css"></style></defs><path d="M542.5 673q0 38-29.25 56.25t-69.75 18.25q-20.5 0-40.25-4.75t-37.75-14.25-29-26.5-11-39q0-23 12.5-40t32.75-25.75 41-12.5 42.25-3.75q10 0 15.5 1 1 0.5 11.5 8.25t13 9.5 11.5 9 12.25 11 9.5 11.25 8.5 13 4.5 13.25 2.25 15.75zm-37-272.5q0 30-16.5 49.75t-46 19.75q-26.5 0-46.5-21.25t-28.75-48.25-8.75-53q0-30.5 16-52t46-21.5q26.5 0 46.75 22.5t29 50.5 8.75 53.5zm53-128.5l44-32-132.5 0q-42.5 0-80.5 16t-63.75 49-25.75 76.5q0 46.5 32.25 77.25t79.25 30.75q11 0 21.5-1.5-6.5 14.5-6.5 27 0 22 20 47-87.5 6-128.5 31.5-23.5 14.5-37.75 36.5t-14.25 47.5q0 21.5 9.25 38.75t24.25 28.25 34.5 18.5 38.75 10.5 38.25 3q30 0 60.25-7.75t56.75-23 43-41.25 16.5-58.5q0-24.5-10-44.75t-24.5-33.25-29-23.75-24.5-22-10-22.25 7.75-21.25 18.75-19.75 22-21 18.75-29.75 7.75-41.25q0-30-11.25-49.75t-36.25-45.25l41.5 0zm145.5 224l64 0 0-32-64 0 0-64-32 0 0 64-64 0 0 32 64 0 0 80 32 0 0-80zm192-224l0 480q0 59.5-42.25 101.75t-101.75 42.25l-480 0q-59.5 0-101.75-42.25t-42.25-101.75l0-480q0-59.5 42.25-101.75t101.75-42.25l480 0q59.5 0 101.75 42.25t42.25 101.75z" p-id="5322" fill="#9d9d9d"></path></svg>