<?xml version="1.0" standalone="no"?><!DOCTYPE svg PUBLIC "-//W3C//DTD SVG 1.1//EN" "http://www.w3.org/Graphics/SVG/1.1/DTD/svg11.dtd"><svg t="1487315486679" class="icon" style="" viewBox="0 0 1024 1024" version="1.1" xmlns="http://www.w3.org/2000/svg" p-id="13228" xmlns:xlink="http://www.w3.org/1999/xlink" width="32" height="32"><defs><style type="text/css"></style></defs><path d="M789.714286 364q9.142857-48.571429-12-75.428571-29.714286-37.142857-106.857143-25.714286-9.714286 1.714286-23.428571 7.142857t-32.857143 17.428571-36.857143 27.714286-34 40-25.428571 52.285714q45.714286-4 64.857143 9.142857t15.142857 56.571429q-2.857143 29.714286-29.714286 81.714286-24.571429 44.571429-40.571429 56.571429-25.142857 18.285714-49.714286-8-13.142857-13.714286-21.428571-36.857143t-10.857143-41.714286-5.714286-48-4.857143-40.857143q-13.142857-73.714286-19.428571-93.714286-6.857143-21.142857-20.285714-39.428571t-28.857143-22.857143q-32.571429-9.142857-72.571429 14.285714-30.857143 18.285714-78 60.571429t-70 58.285714l0 4q9.142857 4.571429 14.571429 14.857143t12.285714 11.428571q12 1.714286 31.142857-4.857143t33.142857-6 23.714286 17.142857q6.285714 10.285714 10.571429 22t8.571429 27.428571 7.142857 23.142857q9.714286 26.285714 30.285714 106.857143 20.571429 83.428571 32.571429 112.571429 24 56.571429 58.857143 71.428571 24.571429 6.857143 48.571429 0.857143t43.428571-18q74.857143-44 142.857143-135.428571 59.428571-79.428571 98.571429-167.142857t47.142857-129.428571zm161.142857-126.285714l0 548.571429q0 68-48.285714 116.285714t-116.285714 48.285714l-548.571429 0q-68 0-116.285714-48.285714t-48.285714-116.285714l0-548.571429q0-68 48.285714-116.285714t116.285714-48.285714l548.571429 0q68 0 116.285714 48.285714t48.285714 116.285714z" p-id="13229" fill="#9d9d9d"></path></svg>