<?xml version="1.0" standalone="no"?><!DOCTYPE svg PUBLIC "-//W3C//DTD SVG 1.1//EN" "http://www.w3.org/Graphics/SVG/1.1/DTD/svg11.dtd"><svg t="1487315454573" class="icon" style="" viewBox="0 0 1025 1024" version="1.1" xmlns="http://www.w3.org/2000/svg" p-id="12366" xmlns:xlink="http://www.w3.org/1999/xlink" width="32.03125" height="32"><defs><style type="text/css"></style></defs><path d="M919.363819 0 104.749087 0C46.925332 0 0 46.812395 0 104.692618L0 919.307351c0 57.880223 46.925332 104.692618 104.749087 104.692618l814.614732 0c57.823755 0 104.749087-46.755927 104.749087-104.692618L1024.112906 104.692618C1024.112906 46.812395 977.244042 0 919.363819 0zM589.926529 172.906579l49.861695 0 0 157.264802c0 30.210653 0.959965 29.307157 1.976398 33.090547 1.072902 4.009264 4.686886 13.439505 16.375868 13.439505 12.423072 0 15.867651-9.938458 16.827616-14.173596 0.790559-3.670453 1.694055-2.936363 1.694055-34.445791L676.662161 172.906579l49.805226 0 0 236.038374-50.482848 0 0.621154-11.914856L661.246258 390.649155c-3.896327 7.905591-8.413808 13.552443-13.947722 17.505238-5.590383 3.896327-11.858387 5.872725-19.312231 5.872725-8.583214 0-15.585309-1.863461-20.893349-5.533914-5.195103-3.557516-8.809088-7.96206-11.180765-13.552443-2.597551-6.211536-4.235138-12.931289-4.856292-19.538105-0.734091-7.623249-1.12937-23.377963-1.12937-46.868864L589.926529 172.906579C589.926529 172.906579 589.926529 172.906579 589.926529 172.906579zM416.681139 271.04885c0-24.620271 2.089335-43.650159 6.042131-57.146133 3.726922-12.479541 10.333737-22.305062 20.215727-29.871842C452.990391 176.181753 466.260491 172.285425 482.410485 172.285425c13.778317 0 25.580235 2.710489 35.236351 7.792654 9.373773 4.969229 16.601742 11.463108 21.514502 19.086357C544.187035 207.182965 547.688083 215.370899 549.551544 223.615301c1.919929 8.583214 2.879894 22.474467 2.879894 41.222013l0 41.560824c0 24.394397-0.959965 42.181977-2.710489 53.136868C548.026894 369.586401 544.299972 379.186048 538.70959 387.995135 533.119207 396.634818 526.173581 403.072228 517.308024 407.250898 508.160126 411.598973 497.37464 413.857713 485.290379 413.857713c-13.778317 0-25.467298-1.919929-34.841071-5.872725C441.753157 404.483941 435.089873 399.401775 430.459455 392.569085 425.7161 385.454053 422.215053 376.701433 420.125718 366.537102 417.866978 355.58221 416.737607 338.52872 416.737607 315.771911 416.737607 315.771911 416.681139 271.04885 416.681139 271.04885zM300.073665 88.824967l40.544391 130.498728c7.058564-34.10698 20.723943-81.314655 31.565897-130.498728l36.761 0L361.624341 275.001646 361.28553 276.469827 361.28553 408.832016 318.200057 408.832016 318.200057 276.469827 317.861245 275.058115 263.312664 88.824967C263.312664 88.824967 300.073665 88.824967 300.073665 88.824967zM887.007363 818.793402c-6.43741 58.727251-58.557845 106.838422-117.002754 110.791218-172.11602 7.397375-343.723823 7.397375-515.783375 0-58.501377-3.952796-110.565344-52.063967-117.059222-110.791218-6.380942-92.947168-6.380942-184.25675 0-277.090981 6.43741-58.727251 58.557845-106.725485 117.059222-110.847686 172.059551-7.340906 343.667355-7.340906 515.783375 0 58.501377 4.122201 110.565344 52.120435 117.002754 110.847686C893.444773 634.536652 893.444773 725.846234 887.007363 818.793402zM484.556288 385.623458c7.227969 0 12.87482-4.348075 15.415903-11.858387C501.15803 370.320492 502.569743 363.770144 502.569743 345.926095L502.569743 243.661623c0-20.667475-1.185839-27.330759-2.428146-31.114149C497.600514 204.867756 492.010132 200.406744 484.725694 200.406744c-7.171501 0-12.818352 4.291607-15.472372 11.914856C467.898078 215.992053 466.542834 222.824742 466.542834 243.661623l0 99.441047c0 19.538105 1.411713 26.257857 2.65402 30.041248C471.794405 381.049509 477.384788 385.623458 484.556288 385.623458zM204.246602 559.54647l40.657328 0L252.978927 559.54647l0 8.300871 0 265.627873 51.047533 0 0-265.627873L304.02646 559.54647l8.018528 0 40.826733 0 0-51.95103L204.246602 507.595441 204.246602 559.54647zM445.649485 739.963361c0 29.420094-0.847028 36.704532-1.52465 39.8103-1.750524 7.623249-7.849123 12.253667-16.432337 12.253667-8.187934 0-14.117128-4.404544-16.037057-11.688982-0.847028-3.105768-1.750524-10.390206-1.750524-38.398587l0-155.683683L361.567873 586.256076l0 169.631405c0 22.36153 0.338811 37.269217 1.016433 44.610123 0.677622 6.719753 2.428146 13.383037 5.138634 19.651042 2.428146 5.646851 6.098599 9.994926 11.237234 13.326568 4.969229 3.444579 11.576045 5.082166 19.538105 5.082166 6.83269 0 12.761883-1.750524 17.956986-5.30804 5.364508-3.613985 10.051395-9.373773 13.891254-16.997022l15.302966 3.726922L444.971863 833.757557l49.014667 0 0-247.501481L445.705953 586.256076 445.649485 739.963361zM659.439265 598.792085c-2.65402-5.251571-6.493879-9.147899-11.576045-12.14073-5.251571-2.992831-11.688982-4.404544-19.086357-4.404544-6.211536 0-11.801919 1.52465-17.166427 4.856292-5.477446 3.501048-10.61608 8.639682-15.246498 15.867651L581.625658 625.727565l0-27.443696L581.625658 507.651909 533.288613 507.651909l0 325.879774 45.626556 0 2.823426-14.512407 3.952796-20.215727 10.729017 17.392301c4.743355 7.792654 9.994926 13.495974 15.52884 17.279364 5.251571 3.501048 10.729017 5.30804 16.714679 5.30804 8.470277 0 15.585309-2.992831 21.796845-8.809088 6.493879-6.324473 10.503143-13.383037 12.253667-21.966251 1.919929-9.48671 2.879894-24.507334 2.879894-23.4909l0-129.369358c0 0.564685 1.919929-12.87482-0.959965-39.584426C664.126152 609.97285 662.375628 604.495405 659.439265 598.792085zM617.370225 742.391507c0 23.152089-1.185839 30.210653-2.145803 33.881106-2.25874 7.96206-7.96206 12.592478-15.641777 12.592478-7.453843 0-13.157163-4.404544-15.52884-12.14073-1.12937-3.501048-2.371677-10.390206-2.371677-31.565897l0-65.559941c0-22.022719 1.12937-28.629535 2.145803-31.791771 2.202272-7.284438 7.96206-11.688982 15.359435-11.688982 7.623249 0 13.383037 4.630418 15.811183 12.479541 1.072902 3.444579 2.484614 10.333737 2.484614 31.114149l0 62.736515L617.370225 742.391507 617.370225 742.391507zM749.450071 717.206552l8.074997 0 75.385461 0 0-26.879011c0-24.337928-2.25874-52.233372-6.719753-65.277598-4.235138-12.592478-11.406639-22.305062-21.966251-29.815374-10.2208-7.227969-23.660306-11.01136-39.866768-11.01136-13.157163 0-24.902613 3.0493-34.897539 9.204367s-16.940553 14.79475-21.345097 26.483731c-4.630418 12.14073-7.058564 29.420094-7.058564 60.082495l0 75.950147c0 9.769052 1.12937 24.224991 3.162237 33.711701 2.032866 9.147899 5.70332 17.618175 10.898423 25.241424 4.91276 7.171501 12.084261 12.987757 21.119223 17.222896 9.260836 4.291607 20.215727 6.493879 32.525862 6.493879 12.592478 0 23.095621-2.202272 31.114149-6.380942 8.018528-4.235138 14.681813-10.729017 19.989853-19.312231 5.533914-8.922025 9.09143-17.44877 10.559611-25.128487 1.581118-8.074997 2.371677-20.046321 2.371677-35.63163l0-11.576045-44.948934 0 0 26.653137c0 14.117128-0.959965 23.321495-2.936363 28.855409-2.766957 7.510312-9.147899 11.914856-17.44877 11.914856-7.284438 0-12.931289-3.613985-15.472372-10.107863-1.242307-3.0493-2.65402-8.526745-2.65402-25.523767L749.337134 725.055675l0-7.792654 0.112937 0L749.450071 717.206552zM749.450071 682.478418l0-27.951913c0-20.554538 1.072902-17.44877 1.976398-20.215727 2.145803-6.606816 7.96206-10.503143 16.037057-10.503143 7.227969 0 12.761883 4.235138 14.964155 11.463108 0.903496 2.936363 2.032866 0.112937 2.032866 19.255762l0 27.951913 0 7.849123-8.074997 0-18.804014 0-8.074997 0C749.50654 690.327541 749.450071 682.478418 749.450071 682.478418z" p-id="12367" fill="#9d9d9d"></path></svg>